# xmcd
# 
# Track frame offsets:
#     150
#     18444
#     42785
#     57458
#     76762
#     95932
#     118182
#     140910
#     157736
#     175463
# 
# Disc length: 2602
# 
# Revision: 0
# Processed by: cddbd v1.5.2PL0 Copyright (c) Steve Scherf et al.
# Submitted via: fre:ac v1.0.27
# 
DISCID=860a280a
DTITLE=養老彌助 - 月のない夜
DYEAR=1999
DGENRE=Folk
TTITLE0=風と夢
TTITLE1=加那よ
TTITLE2=HARD DAYS NIGHT
TTITLE3=Angel
TTITLE4=月のない夜 ～ Moonless Night ～
TTITLE5=North Marine Drive
TTITLE6=ONE MORE NIGHT
TTITLE7=ひぐまのひまちゃん
TTITLE8=夢がかなうまで
TTITLE9=陽の光
EXTD=
EXTT0=
EXTT1=
EXTT2=
EXTT3=
EXTT4=
EXTT5=
EXTT6=
EXTT7=
EXTT8=
EXTT9=
PLAYORDER=
